<?xml version="1.0" encoding="UTF-8"?>
<svg id="Flower" xmlns="http://www.w3.org/2000/svg" version="1.1" xmlns:xlink="http://www.w3.org/1999/xlink" viewBox="0 0 792 792">
  <!-- Generator: Adobe Illustrator 29.1.0, SVG Export Plug-In . SVG Version: 2.1.0 Build 142)  -->
  <defs>
    <style>
      .st0 {
        fill: #18c249;
      }

      .st1 {
        fill: #fa2921;
      }

      .st2 {
        fill: #1e83f7;
      }

      .st3 {
        fill: #ed79b5;
      }

      .st4 {
        fill: #ffb400;
      }
    </style>
  </defs>
  <g id="Flower1" data-name="Flower">
    <path class="st1" d="M375.5,267.6c38.6,34.2,69.8,70.9,89.8,105.4,34.4-61.6,57.4-134.7,57.7-181.3v-.9c0-68.9-68.8-95.8-128-95.8s-128,26.8-128,95.8v3.7c33,14.7,72.2,40.9,108.5,73.1Z"/>
    <path class="st3" d="M164.7,455.6c24.1-26.9,61.2-56,103-80.6,44.5-26.2,89-44.5,128-52.8-47.9-51.8-110.4-96.2-154.6-110.9-.3-.1-.6-.2-.9-.3-65.6-21.3-112.3,35.8-130.6,92.1s-14,130,51.5,151.3c.9.3,2.1.7,3.5,1.1Z"/>
    <path class="st4" d="M681.1,302.2c-18.3-56.3-65.1-113.4-130.6-92.1-.9.3-2.1.7-3.5,1.1-3.8,35.9-16.6,81.3-36,125.8-20.6,47.3-45.8,88.3-72.5,118,69.2,13.7,145.9,13,190.3-1.1.3-.1.6-.2.9-.3,65.6-21.3,69.8-95,51.5-151.3Z"/>
    <path class="st2" d="M336.5,510.7c-11.1-50.4-14.8-98.4-10.7-138.1-64,29.6-125.6,75.2-153.3,112.8-.2.3-.4.5-.5.7-40.5,55.8-.7,117.9,47.3,152.7,47.9,34.8,119.3,53.5,159.9-2.2.6-.8,1.3-1.8,2.2-3-18.1-31.3-34.4-75.5-44.8-122.9Z"/>
    <path class="st0" d="M617.6,482.5c-35.3,7.5-82.4,9.3-130.7,4.7-51.4-5-98.1-16.3-134.6-32.5,8.3,70,32.7,142.7,59.9,180.6.2.3.4.5.5.7,40.5,55.8,111.9,37.1,159.9,2.2,47.9-34.8,87.8-97,47.3-152.7-.6-.8-1.3-1.8-2.2-3Z"/>
  </g>
  <image width="256" height="256" transform="translate(36 279.4) scale(1.8 1.8)" xlink:href="this-pc-computer-display-windows-11-icon.png"/>
</svg>